<?xml version="1.0" encoding="UTF-8" standalone="no"?>
<svg width="72px" height="72px" viewBox="0 0 72 72" version="1.1" xmlns="http://www.w3.org/2000/svg" xmlns:xlink="http://www.w3.org/1999/xlink">
    <!-- Generator: Sketch 40.1 (33804) - http://www.bohemiancoding.com/sketch -->
    <title>Group 4</title>
    <desc>Created with Sketch.</desc>
    <defs></defs>
    <g id="Website" stroke="none" stroke-width="1" fill="none" fill-rule="evenodd">
        <g id="My_Booking-No-appoinment" transform="translate(-843.000000, -281.000000)">
            <g id="Group-4" transform="translate(843.000000, 281.000000)">
                <path d="M55.0026525,66.4615385 L4.58355438,66.4615385 C3.34216926,66.4615385 2.26790879,66.0079621 1.36074271,65.1007958 C0.453576349,64.1936297 0,63.1193692 0,61.8779841 L0,11.4588859 C0,10.1697521 0.453576349,9.08355972 1.36074271,8.20026296 C2.26790879,7.31697536 3.34216926,6.87533156 4.58355438,6.87533156 L9.16710875,6.87533156 L9.16710875,9.16710875 C9.16710875,11.0769292 9.83553766,12.7002591 11.1724138,14.0371353 C12.5092899,15.3740114 14.1326199,16.0424403 16.0424403,16.0424403 C17.9522608,16.0424403 19.5755907,15.3740114 20.9124668,14.0371353 C22.249343,12.7002591 22.9177719,11.0769292 22.9177719,9.16710875 L22.9177719,6.87533156 L36.668435,6.87533156 L36.668435,9.16710875 C36.668435,11.0769292 37.3368639,12.7002591 38.6737401,14.0371353 C40.0106162,15.3740114 41.6339461,16.0424403 43.5437666,16.0424403 C45.453587,16.0424403 47.076917,15.3740114 48.4137931,14.0371353 C49.7506692,12.7002591 50.4190981,11.0769292 50.4190981,9.16710875 L50.4190981,6.87533156 L55.0026525,6.87533156 C56.2440349,6.87533156 57.3183009,7.31697536 58.2254596,8.20026296 C59.1326275,9.08355972 59.5862069,10.1697521 59.5862069,11.4588859 L59.5862069,61.8779841 C59.5862069,63.1193692 59.1326275,64.1936297 58.2254596,65.1007958 C57.3183009,66.0079621 56.2440349,66.4615385 55.0026525,66.4615385 L55.0026525,66.4615385 Z M55.0026525,22.9177719 L4.58355438,22.9177719 L4.58355438,61.8779841 L55.0026525,61.8779841 L55.0026525,22.9177719 Z M16.0424403,34.3766578 L9.16710875,34.3766578 L9.16710875,27.5013263 L16.0424403,27.5013263 L16.0424403,34.3766578 Z M16.0424403,45.8355438 L9.16710875,45.8355438 L9.16710875,38.9602122 L16.0424403,38.9602122 L16.0424403,45.8355438 Z M16.0424403,57.2944297 L9.16710875,57.2944297 L9.16710875,50.4190981 L16.0424403,50.4190981 L16.0424403,57.2944297 Z M27.5013263,34.3766578 L20.6259947,34.3766578 L20.6259947,27.5013263 L27.5013263,27.5013263 L27.5013263,34.3766578 Z M27.5013263,45.8355438 L20.6259947,45.8355438 L20.6259947,38.9602122 L27.5013263,38.9602122 L27.5013263,45.8355438 Z M27.5013263,57.2944297 L20.6259947,57.2944297 L20.6259947,50.4190981 L27.5013263,50.4190981 L27.5013263,57.2944297 Z M38.9602122,34.3766578 L32.0848806,34.3766578 L32.0848806,27.5013263 L38.9602122,27.5013263 L38.9602122,34.3766578 Z M38.9602122,45.8355438 L32.0848806,45.8355438 L32.0848806,38.9602122 L38.9602122,38.9602122 L38.9602122,45.8355438 Z M38.9602122,57.2944297 L32.0848806,57.2944297 L32.0848806,50.4190981 L38.9602122,50.4190981 L38.9602122,57.2944297 Z M50.4190981,34.3766578 L43.5437666,34.3766578 L43.5437666,27.5013263 L50.4190981,27.5013263 L50.4190981,34.3766578 Z M50.4190981,45.8355438 L43.5437666,45.8355438 L43.5437666,38.9602122 L50.4190981,38.9602122 L50.4190981,45.8355438 Z M50.4190981,57.2944297 L43.5437666,57.2944297 L43.5437666,50.4190981 L50.4190981,50.4190981 L50.4190981,57.2944297 Z M43.4721531,13.7506631 C42.2307616,13.7506631 41.1684404,13.3090193 40.2851436,12.4257317 C39.401856,11.542435 38.9602122,10.4801137 38.9602122,9.23872221 L38.9602122,4.51194092 C38.9602122,3.27054939 39.401856,2.20822816 40.2851436,1.3249314 C41.1684404,0.441643798 42.2307616,0 43.4721531,0 C44.7135355,0 45.7758567,0.441643798 46.6591535,1.3249314 C47.5424411,2.20822816 47.9840849,3.27054939 47.9840849,4.51194092 L47.9840849,9.23872221 C47.9840849,10.4801137 47.5424411,11.542435 46.6591535,12.4257317 C45.7758567,13.3090193 44.7135355,13.7506631 43.4721531,13.7506631 L43.4721531,13.7506631 Z M15.9708269,13.7506631 C14.7294353,13.7506631 13.6671141,13.3090193 12.7838173,12.4257317 C11.9005297,11.542435 11.4588859,10.4801137 11.4588859,9.23872221 L11.4588859,4.51194092 C11.4588859,3.27054939 11.9005297,2.20822816 12.7838173,1.3249314 C13.6671141,0.441643798 14.7294353,0 15.9708269,0 C17.2122092,0 18.2745305,0.441643798 19.1578272,1.3249314 C20.0411148,2.20822816 20.4827586,3.27054939 20.4827586,4.51194092 L20.4827586,9.23872221 C20.4827586,10.4801137 20.0411148,11.542435 19.1578272,12.4257317 C18.2745305,13.3090193 17.2122092,13.7506631 15.9708269,13.7506631 L15.9708269,13.7506631 Z" id="Page-1" fill="#9B9B9B"></path>
                <path d="M57.6,72 C65.5529004,72 72,65.5529004 72,57.6 C72,49.6470996 65.5529004,43.2 57.6,43.2 C49.6470996,43.2 43.2,49.6470996 43.2,57.6 C43.2,65.5529004 49.6470996,72 57.6,72 Z" id="Oval-2" fill="#9144D2"></path>
                <path d="M57.6,69.8384615 C64.3591157,69.8384615 69.8384615,64.3591157 69.8384615,57.6 C69.8384615,50.8408843 64.3591157,45.3615385 57.6,45.3615385 C50.8408843,45.3615385 45.3615385,50.8408843 45.3615385,57.6 C45.3615385,64.3591157 50.8408843,69.8384615 57.6,69.8384615 Z" id="Oval-2" fill="#FFFFFF"></path>
                <text id="0" font-family="JosefinSans-SemiBold, Josefin Sans" font-size="16.5000004" font-weight="500" fill="#9144D2">
                    <tspan x="52.906846" y="62.6307692">0</tspan>
                </text>
            </g>
        </g>
    </g>
</svg>